<svg width="67" height="94" viewBox="0 0 67 94" fill="none" xmlns="http://www.w3.org/2000/svg">
<path d="M38.5106 55.748C38.1065 54.9398 38.679 50.6968 39.0157 48.6763L39.5208 49.1814C40.8678 49.0131 43.9658 48.6763 45.5822 48.6763C47.6027 48.6763 49.118 50.1917 50.1283 50.6968C51.1385 51.2019 53.6641 52.7173 54.6743 53.2224C55.6845 53.7275 57.1999 55.2428 58.2101 55.748C59.2204 56.2531 59.2204 56.7582 59.7255 57.7684C60.2306 58.7787 61.7459 59.7889 62.7562 61.8093C63.7664 63.8298 62.7562 66.3554 60.7357 66.3554C59.7255 65.8503 55.6845 63.3247 52.6538 63.8298C49.6231 64.3349 52.1487 67.3656 52.6538 68.881C53.159 70.3963 53.6641 70.9014 54.6743 72.4168C55.6845 73.9321 58.2101 77.4679 59.2204 78.4782C60.2306 79.4884 61.2408 83.0242 60.7357 84.0345C60.2306 85.0447 58.7152 87.5703 58.2101 88.0754C57.705 88.5805 53.159 86.56 52.6538 86.0549C52.1487 85.5498 47.6027 80.4986 47.0976 79.9935C46.6935 79.5894 43.5618 71.7433 42.0464 67.8707C41.0362 64.1666 38.9147 56.5561 38.5106 55.748Z" fill="#FFCE00"/>
<path d="M25.8827 43.6252L26.8274 37.0123C27.2072 34.3538 27.8097 31.7241 28.6239 29.1651C30.1515 24.3641 32.4251 19.8175 35.3535 15.7177C37.4516 12.7803 39.8723 10.0873 42.5703 7.6891L43.0566 7.25681L46.1842 5.17175C47.1229 4.54599 48.1621 4.08625 49.2566 3.81264L49.4044 3.77569C50.8746 3.40814 52.4126 3.40814 53.8828 3.77569L54.661 3.97024C56.6055 4.45636 58.2673 5.71522 59.2617 7.45547C59.5696 7.99435 59.8081 8.57005 59.9714 9.16883L60.1175 9.70447C60.8431 12.3649 60.6073 15.1959 59.4517 17.6996L58.2101 20.3898L54.6743 26.4512L51.6436 33.5228L50.1283 39.0791L48.8028 42.227C47.2225 45.9802 43.2188 48.1026 39.2256 47.304C38.7498 47.2088 38.2829 47.0734 37.8301 46.8992L35.5137 46.0083C33.1401 45.0954 30.6802 44.4247 28.1716 44.0066L25.8827 43.6252Z" fill="#FEFEF5" stroke="black" stroke-width="7" stroke-linecap="round"/>
<path d="M15.7804 64.58V63.8951C15.7804 62.5152 16.0216 61.146 16.4932 59.8492L17.777 56.3186C17.7929 56.275 17.8132 56.2332 17.8378 56.1939L18.4419 55.2274C18.7499 54.7346 19.5092 55.0723 19.3496 55.631C19.3276 55.7079 19.3244 55.7888 19.34 55.8672L20.675 62.542C21.1146 64.7399 21.8112 66.8784 22.7505 68.9135L23.062 69.5886C23.9305 71.4703 24.9651 73.2708 26.1536 74.9686C27.3178 76.6316 28.625 78.1898 30.0604 79.6252L32.9543 82.5191C36.2712 85.5043 40.2691 87.631 44.5982 88.7133L46.0873 89.0856L52.3376 90.0725C54.5144 90.4162 56.7441 90.0711 58.7152 89.0856L55.4814 86.873C51.2861 84.0025 47.7413 80.2818 45.0771 75.9526L41.5413 69.3861L39.835 65.9735C38.956 64.2155 38.3153 62.3481 37.9298 60.4207C37.6442 58.9927 37.5004 57.5401 37.5004 56.0838V47.8099C37.5004 47.7153 37.5224 47.622 37.5647 47.5375C37.7672 47.1324 37.4727 46.6559 37.0198 46.6559H36.6607C36.5482 46.6559 36.4368 46.633 36.3333 46.5887L32.9543 45.1405L32.7737 45.0683C31.2172 44.4456 29.7494 43.6208 28.4083 42.6149L26.3878 41.6047C25.0408 41.0996 23.1551 41.0996 22.3469 41.0996C21.3367 41.0996 15.7804 42.1098 14.7702 42.6149C13.7599 43.12 10.2241 45.6456 7.69853 48.6763C7.23626 49.231 6.63296 50.6178 5.93705 52.3139C4.1859 56.5817 3.28708 61.2014 3.54297 65.8075L3.62232 67.2356C3.6458 67.6584 3.70216 68.0787 3.79087 68.4927L4.59028 72.2232C4.93014 73.8092 6.33177 74.9423 7.95381 74.9423C8.76742 74.9423 9.55469 74.654 10.1758 74.1284L12.1115 72.4905C14.4384 70.5216 15.7804 67.6281 15.7804 64.58Z" fill="#FFCE00"/>
<path d="M50.6334 69.3861L53.6641 72.9219L56.1897 76.4577L57.6327 78.983C58.0169 79.6555 58.3432 80.3594 58.6078 81.0873L59.5798 83.7601C60.0012 84.9191 60.0184 86.1865 59.6284 87.3564L59.4462 87.9028C59.2977 88.3485 59.0474 88.7534 58.7152 89.0856M58.7152 89.0856L55.4814 86.873C51.2861 84.0025 47.7413 80.2818 45.0771 75.9526L41.5413 69.3861L39.835 65.9735C38.956 64.2155 38.3153 62.3481 37.9298 60.4207C37.6442 58.9927 37.5004 57.5401 37.5004 56.0838V47.8099C37.5004 47.7153 37.5224 47.622 37.5647 47.5375C37.7672 47.1324 37.4727 46.6559 37.0198 46.6559H36.6607C36.5482 46.6559 36.4368 46.633 36.3333 46.5887L32.9543 45.1405L32.7737 45.0683C31.2172 44.4456 29.7494 43.6208 28.4083 42.6149L26.3878 41.6047C25.0408 41.0996 23.1551 41.0996 22.3469 41.0996C21.3367 41.0996 15.7804 42.1098 14.7702 42.6149C13.7599 43.12 10.2241 45.6456 7.69853 48.6763C7.23626 49.231 6.63296 50.6178 5.93705 52.3139C4.1859 56.5817 3.28708 61.2014 3.54297 65.8075L3.62232 67.2356C3.6458 67.6584 3.70216 68.0787 3.79087 68.4927L4.59028 72.2232C4.93014 73.8092 6.33177 74.9423 7.95381 74.9423C8.76742 74.9423 9.55469 74.654 10.1758 74.1284L12.1115 72.4905C14.4384 70.5216 15.7804 67.6281 15.7804 64.58V63.8951C15.7804 62.5152 16.0216 61.146 16.4932 59.8492L17.777 56.3186C17.7929 56.275 17.8132 56.2332 17.8378 56.1939L18.4419 55.2274C18.7499 54.7346 19.5092 55.0723 19.3496 55.631C19.3276 55.7079 19.3244 55.7888 19.34 55.8672L20.675 62.542C21.1146 64.7399 21.8112 66.8784 22.7505 68.9135L23.062 69.5886C23.9305 71.4703 24.9651 73.2708 26.1536 74.9686C27.3178 76.6316 28.625 78.1898 30.0604 79.6252L32.9543 82.5191C36.2712 85.5043 40.2691 87.631 44.5982 88.7133L46.0873 89.0856L52.3376 90.0725C54.5144 90.4162 56.7441 90.0711 58.7152 89.0856Z" stroke="black" stroke-width="7" stroke-linecap="round"/>
<path d="M50.6334 68.8809C49.3759 65.0971 53.8994 62.0602 56.9255 64.6566L59.8962 67.2056C59.9746 67.2729 60.0457 67.3483 60.1084 67.4305C60.9644 68.5526 62.7562 67.9473 62.7562 66.5358V64.3349C62.5637 62.7843 59.316 56.1463 58.2101 55.419C56.4061 54.2326 53.3755 51.7188 51.6436 51.2019C49.9118 50.685 43.8504 47.6661 41.5413 47.6661M41.5413 47.6661C39.694 47.6661 43.2731 47.6661 41.5413 47.6661Z" stroke="black" stroke-width="7" stroke-linecap="round"/>
</svg>
